<svg width="108" height="108" viewBox="0 0 108 108" fill="none" xmlns="http://www.w3.org/2000/svg">
<path fill-rule="evenodd" clip-rule="evenodd" d="M63.6744 29.7254C63.5859 29.938 62.5199 32.0667 62.5028 33.9988C62.4458 40.4521 66.9024 41.7392 70.8163 45.2092C72.2403 46.4717 71.2906 46.8082 71.2637 47.4858C70.9972 54.1937 67.2971 53.6079 68.2493 59.3372C68.8304 62.8337 73.1356 70.0003 73.7931 70.5865C70.4329 74.2333 65.9366 76.3161 65.1705 76.671C64.958 75.5037 62.9591 72.9235 62.7515 72.6832C61.0657 70.7313 58.2783 72.8884 58.0023 73.2593C56.0097 75.9366 56.9626 76.85 57.5595 78.8312C53.5049 79.2491 52.171 79.3157 47.3155 78.2826C47.3637 78.1658 47.5505 78.1474 47.5987 78.0305C48.946 74.7603 48.8129 72.1008 48.7866 71.5765C48.5337 66.5234 37.9014 66.8837 40.7388 61.7331C41.852 59.7124 48.8884 56.7344 44.0186 48.5969C41.3761 44.1815 34.8728 40.9439 33.9468 37.0727C33.8883 36.8285 33.8628 36.8624 33.7733 36.638C38.1729 32.3009 41.0951 30.4274 47.6856 28.6464C55.211 26.6126 62.4712 29.2828 63.6744 29.7254L63.6744 29.7254Z" fill="#1BA3DE"/>
<path fill-rule="evenodd" clip-rule="evenodd" d="M61.5314 8.20013C63.9212 8.75281 78.1488 11.2956 82.5337 24.2975C83.6409 27.5805 78.6877 20.947 68.362 21.4958C64.9507 21.6771 62.4469 23.8358 62.9457 22.4812C63.3127 21.4848 64.8407 21.8349 65.8589 16.9175C66.0238 16.1212 65.8298 9.3325 59.7288 8.43224C54.4191 7.64878 47.1088 7.95368 45.2038 9.5967C40.9793 13.2401 41.3372 18.5032 44.2952 21.732C46.3349 23.9585 43.4815 22.413 42.8049 22.1721C35.0857 19.4242 25.6852 25.23 25.5524 25.2125C24.8583 25.1209 27.9113 19.9655 31.1488 16.7481C43.4176 4.55555 58.3342 7.67804 61.5314 8.2001V8.20013Z" fill="#94948F"/>
<path fill-rule="evenodd" clip-rule="evenodd" d="M99.3636 44.4013C103.602 59.3469 97.6483 78.0338 83.6432 82.5572C82.4486 82.9431 83.0811 81.8996 83.118 81.8387C86.1714 76.801 87.8784 69.5005 85.8218 64.555C85.2696 63.227 84.8862 62.9961 85.4151 62.8829C85.8973 62.7796 90.3086 68.3038 96.5353 64.4871C100.003 62.3615 99.8904 59.1562 100.089 56.118C100.237 53.8521 100.279 47.0515 98.4867 45.0385C95.2823 41.4401 90.0846 40.7716 86.2031 44.4769C85.1762 45.4571 85.2195 44.4925 85.2494 44.4222C86.5831 41.2811 88.7241 36.257 83.0853 25.9112C82.0761 24.0595 87.9524 27.8147 90.9555 30.6428C96.5935 35.9523 98.9617 43.1755 99.3636 44.4013Z" fill="#CAC210"/>
<path fill-rule="evenodd" clip-rule="evenodd" d="M25.0955 82.9192C25.3558 82.7934 25.3328 82.796 25.3558 82.7934C25.6861 82.7561 35.6242 89.475 44.1092 85.1245C44.7286 84.807 44.9086 85.3801 44.5697 85.738C43.8769 86.4695 38.2739 92.3855 44.8359 98.3284C46.8626 100.164 54.7164 100.355 59.9109 99.4953C63.5615 98.891 69.1151 92.5792 62.8282 85.741C62.4347 85.313 62.7166 84.8233 63.2906 85.1225C71.5383 89.4212 81.6656 82.9144 82.0236 82.7329C82.8462 82.3158 81.8896 84.7187 81.8258 84.8789C81.0665 86.7861 76.9797 97.0514 60.9885 99.8521C34.3964 104.509 25.1738 83.369 25.0955 82.9192Z" fill="#4C4C4A"/>
<path fill-rule="evenodd" clip-rule="evenodd" d="M8.35871 62.9314C8.22063 62.2736 2.33703 41.9794 19.5112 28.5062C21.1197 27.2444 24.5414 25.3211 24.6542 25.3117C26.3877 25.1661 17.8228 34.2555 22.7057 44.4145C22.9695 44.9634 22.3769 45.0594 22.1867 44.894C21.9045 44.6486 21.6523 44.3702 21.3689 44.1263C17.6564 40.9309 12.6505 41.6168 9.74713 44.7979C9.18557 45.4131 7.58929 47.1621 7.83168 55.0326C8.03822 61.7396 9.15269 62.9084 11.2112 64.3321C17.1869 68.4651 22.3368 62.8608 22.5075 62.8676C24.246 62.9362 17.937 66.9374 23.8322 79.8151C24.7941 81.9165 25.9336 83.0541 24.4722 82.5726C12.1179 78.5017 9.24454 66.304 8.35871 62.9314Z" fill="#AC200F"/>
<path fill-rule="evenodd" clip-rule="evenodd" d="M30.7503 40.6381C39.2893 46.1874 39.026 46.8011 40.2896 51.6215C40.4216 52.1252 40.7064 55.5774 39.3469 57.8798C36.8747 62.0666 31.149 62.6346 35.4922 66.6703C36.8521 67.9339 40.975 67.8298 42.6013 73.3857C43.2063 75.4525 42.7309 76.425 42.6159 76.6604C41.1597 75.9657 31.9112 71.5533 28.7111 62.052C28.8411 61.9252 28.7873 61.8918 28.941 61.8278C29.205 61.7178 29.1658 61.6715 30.678 59.7898C35.9545 53.2241 29.4653 47.3292 28.3157 46.2272C28.8434 43.9488 29.7206 42.4633 30.7503 40.6381Z" fill="#1ED50F"/>
<path fill-rule="evenodd" clip-rule="evenodd" d="M33.7733 36.638C33.8629 36.8624 33.8883 36.8285 33.9468 37.0727C34.8728 40.9439 41.3761 44.1815 44.0185 48.597C48.8884 56.7345 41.852 59.7124 40.7388 61.7331C37.9013 66.8837 48.5337 66.5234 48.7866 71.5765C48.8129 72.1008 48.946 74.7603 47.5987 78.0305C47.5505 78.1473 47.3637 78.1658 47.3155 78.2826C44.5056 77.56 44.56 77.4728 42.6159 76.6604C42.731 76.4251 43.2063 75.4526 42.6013 73.3857C40.975 67.8299 36.8522 67.934 35.4922 66.6704C31.149 62.6346 36.8747 62.0666 39.3469 57.8799C40.7064 55.5774 40.4216 52.1252 40.2896 51.6216C39.026 46.8011 39.2893 46.1874 30.7504 40.6382C31.7357 39.1378 31.7637 38.9427 33.7733 36.638Z" fill="#19880F"/>
<path fill-rule="evenodd" clip-rule="evenodd" d="M63.6745 29.7254C66.1719 30.7254 66.1499 30.7336 68.4955 32.0793C62.6736 42.1863 80.4141 42.9374 75.3868 51.6296C72.9662 55.8148 69.4825 61.3655 75.9415 68.0023C75.3066 68.8357 75.1032 69.2895 73.7931 70.5865C73.1357 70.0003 68.8305 62.8337 68.2493 59.3372C67.2971 53.6079 70.9973 54.1936 71.2637 47.4858C71.2906 46.8082 72.2403 46.4717 70.8163 45.2092C66.9025 41.7392 62.4458 40.4521 62.5029 33.9988C62.52 32.0667 63.5859 29.938 63.6745 29.7254Z" fill="#19880F"/>
<path fill-rule="evenodd" clip-rule="evenodd" d="M68.4955 32.0793C70.0457 33.1093 80.1912 39.8502 80.5586 51.9726C80.2973 52.0537 80.3143 52.0399 80.2973 52.0537C74.1779 57.0223 75.4685 59.2397 77.913 64.7522C76.9923 66.6522 76.9012 66.5813 75.9414 68.0023C69.4825 61.3655 72.9662 55.8147 75.3868 51.6296C80.4141 42.9374 62.6736 42.1863 68.4955 32.0793Z" fill="#1ED50F"/>
<path fill-rule="evenodd" clip-rule="evenodd" d="M10.4855 58.0711C6.02669 49.8656 15.9734 43.4705 21.1914 49.5025C27.1084 56.3427 16.6283 66.6535 10.4855 58.0711Z" fill="#CB4434"/>
<path fill-rule="evenodd" clip-rule="evenodd" d="M52.3674 9.78722C61.896 8.28432 63.5706 18.5363 58.2394 21.8835C49.6062 27.304 41.4399 13.5482 52.3674 9.78722Z" fill="#969792"/>
<path fill-rule="evenodd" clip-rule="evenodd" d="M97.973 57.1718C92.0006 67.5062 79.9252 56.1821 87.4596 48.7882C91.2956 45.0238 101.014 47.8035 97.973 57.1718Z" fill="#D5CB11"/>
<path fill-rule="evenodd" clip-rule="evenodd" d="M57.5733 97.4856C48.2484 102.169 42.2088 88.7722 51.6521 85.3031C58.6459 82.7338 65.3434 92.5592 57.5733 97.4856Z" fill="#3F3F3F"/>
<path fill-rule="evenodd" clip-rule="evenodd" d="M50.7419 45.7575C43.2464 45.6078 44.9295 36.2571 47.2114 34.258C52.4835 29.6391 60.6516 40.3676 52.8497 45.0718C51.8009 45.7042 51.1008 45.6805 50.7419 45.7575Z" fill="#178810"/>
<path fill-rule="evenodd" clip-rule="evenodd" d="M28.3157 46.2272C29.4653 47.3292 35.9545 53.2241 30.678 59.7899C29.1659 61.6715 29.2051 61.7179 28.941 61.8278C28.7873 61.8918 28.8411 61.9252 28.7111 62.052C28.2077 60.6289 25.9511 55.08 27.9148 47.3079C27.9374 47.2185 28.0535 46.7589 28.3157 46.2272Z" fill="#BA9A0E"/>
<path fill-rule="evenodd" clip-rule="evenodd" d="M50.9145 45.3379C50.5674 45.2995 47.9608 45.8627 47.1226 41.9106C46.7585 40.1943 47.3422 37.1553 49.1252 36.9486C51.0216 36.7287 52.0615 35.4366 53.9063 38.5256C54.582 39.657 54.8527 42.5784 53.5653 43.8403C53.2091 44.1895 52.9215 44.723 50.9145 45.3379Z" fill="#1DD50F"/>
<path fill-rule="evenodd" clip-rule="evenodd" d="M80.5586 51.9726C80.6863 53.0799 81.2957 58.3943 77.913 64.7521C75.4685 59.2397 74.1779 57.0222 80.2973 52.0537C80.3143 52.0399 80.2973 52.0537 80.5586 51.9726Z" fill="#BA9B0F"/>
<path fill-rule="evenodd" clip-rule="evenodd" d="M65.1706 76.6709C64.2146 77.16 64.2041 77.0986 63.5149 77.3818C63.4541 77.3086 60.9983 73.0968 58.8598 74.8565C58.6134 75.0592 57.6073 75.887 58.1059 78.7734C57.9238 78.7926 57.7416 78.8119 57.5595 78.8311C56.9626 76.8499 56.0097 75.9365 58.0023 73.2592C58.2783 72.8883 61.0657 70.7312 62.7515 72.6831C62.959 72.9234 64.9581 75.5036 65.1706 76.6709Z" fill="#188810"/>
<path fill-rule="evenodd" clip-rule="evenodd" d="M79.5749 30.5684C79.7349 36.7527 71.8512 32.9707 75.0049 29.1376C75.8182 28.1491 78.8133 27.3532 79.5749 30.5684Z" fill="#100F0F"/>
<path fill-rule="evenodd" clip-rule="evenodd" d="M30.6128 33.7007C25.2696 34.7599 26.5746 26.8276 30.9337 28.8235C32.2272 29.4157 33.8169 32.1932 30.6128 33.7007Z" fill="#100F0F"/>
<path fill-rule="evenodd" clip-rule="evenodd" d="M74.7505 76.97C75.176 73.6675 78.4567 74.0678 79.4406 75.4049C82.1081 79.0298 75.1258 81.9712 74.7505 76.97Z" fill="#100F0F"/>
<path fill-rule="evenodd" clip-rule="evenodd" d="M30.595 79.5637C25.6214 79.1406 28.525 72.3626 32.0484 74.7915C33.5396 75.8195 33.9681 79.085 30.595 79.5637Z" fill="#100F0F"/>
<path fill-rule="evenodd" clip-rule="evenodd" d="M63.5149 77.3818C61.4634 78.0197 61.5129 78.1578 58.1059 78.7734C57.6074 75.8871 58.6134 75.0593 58.8598 74.8565C60.9983 73.0969 63.4542 77.3087 63.5149 77.3818Z" fill="#1FD511"/>
<path fill-rule="evenodd" clip-rule="evenodd" d="M79.6106 36.6921C79.6308 36.6053 79.5761 35.6869 80.5767 35.4077C80.9446 35.3051 81.451 35.5309 81.6089 35.6754C83.1261 37.0639 80.2318 39.8282 79.6106 36.6921Z" fill="#100F0F"/>
<path fill-rule="evenodd" clip-rule="evenodd" d="M27.2794 71.4055C26.9056 74.2416 23.7621 71.9602 25.091 70.57C25.7329 69.8987 26.4943 70.3179 26.601 70.3766C27.0242 70.6096 27.2493 71.3116 27.2794 71.4055Z" fill="#110F0E"/>
<path fill-rule="evenodd" clip-rule="evenodd" d="M25.8374 37.2262C24.9852 39.8781 22.0201 36.9104 24.1409 35.8451C25.5432 35.1407 25.813 37.0529 25.8374 37.2262Z" fill="#11100F"/>
<path fill-rule="evenodd" clip-rule="evenodd" d="M72.4155 80.5847C72.4302 83.3052 68.7552 81.4923 70.4074 79.7579C70.778 79.3689 71.33 79.478 71.4114 79.4941C72.0801 79.6263 72.3764 80.4728 72.4155 80.5847Z" fill="#11100D"/>
<path fill-rule="evenodd" clip-rule="evenodd" d="M82.1245 71.5767C81.7236 74.295 78.3897 71.9003 80.2489 70.5364C80.8009 70.1315 81.4053 70.4328 81.4946 70.4773C82.1144 70.7862 81.9872 70.9064 82.1245 71.5767Z" fill="#11100E"/>
<path fill-rule="evenodd" clip-rule="evenodd" d="M71.5972 28.1279C68.9718 27.8973 70.9578 24.5551 72.4235 26.1422C72.5645 26.2949 72.7931 26.7985 72.6921 27.1675C72.4395 28.0894 71.6686 28.1074 71.5972 28.1279Z" fill="#110F0E"/>
<path fill-rule="evenodd" clip-rule="evenodd" d="M37.4422 81.6888C34.4035 81.9055 36.1547 78.6019 37.5845 79.5296C39.1613 80.5527 37.5866 81.5934 37.4422 81.6888Z" fill="#11100E"/>
<path fill-rule="evenodd" clip-rule="evenodd" d="M35.0844 27.0811C36.8328 27.2293 36.2565 28.7636 36.1299 28.9351C34.809 30.7235 32.5349 27.5664 35.0844 27.0811Z" fill="#110F0E"/>
</svg>

